<svg width="2099" height="832" viewBox="0 0 2099 832" fill="none" xmlns="http://www.w3.org/2000/svg">
<path d="M794 423H1308.44" stroke="white" stroke-opacity="0.1" stroke-width="15"/>
<path d="M576.557 574V574C576.557 594.979 576.557 605.468 572.894 613.655C568.677 623.079 561.136 630.62 551.712 634.837C543.526 638.5 533.036 638.5 512.057 638.5H311.933C293.626 638.5 284.472 638.5 276.842 639.905C242.158 646.289 215.02 673.428 208.635 708.111C207.231 715.742 207.231 724.895 207.231 743.202V743.202C207.231 757.417 207.231 764.524 206.14 770.449C201.182 797.38 180.11 818.452 153.179 823.409C147.255 824.5 140.147 824.5 125.933 824.5H0" stroke="white" stroke-opacity="0.1" stroke-width="15"/>
<path d="M594.557 273.5V273.5C594.557 252.521 594.557 242.032 590.894 233.845C586.677 224.421 579.136 216.88 569.712 212.663C561.526 209 551.036 209 530.057 209H329.933C311.626 209 302.472 209 294.842 207.595C260.158 201.211 233.02 174.072 226.635 139.389C225.231 131.758 225.231 122.605 225.231 104.298V104.298C225.231 90.0832 225.231 82.9758 224.14 77.0512C219.182 50.1204 198.11 29.0482 171.179 24.0906C165.255 23 158.147 23 143.933 23H18" stroke="white" stroke-opacity="0.1" stroke-width="15"/>
<path d="M1522 559V559C1522 579.979 1522 590.468 1525.66 598.655C1529.88 608.079 1537.42 615.62 1546.85 619.837C1555.03 623.5 1565.52 623.5 1586.5 623.5H1786.62C1804.93 623.5 1814.08 623.5 1821.72 624.905C1856.4 631.289 1883.54 658.428 1889.92 693.111C1891.33 700.742 1891.33 709.895 1891.33 728.202V728.202C1891.33 742.417 1891.33 749.524 1892.42 755.449C1897.37 782.38 1918.45 803.452 1945.38 808.409C1951.3 809.5 1958.41 809.5 1972.62 809.5H2098.56" stroke="white" stroke-opacity="0.1" stroke-width="15"/>
<path d="M1504 258.5V258.5C1504 237.521 1504 227.032 1507.66 218.845C1511.88 209.421 1519.42 201.88 1528.85 197.663C1537.03 194 1547.52 194 1568.5 194H1768.62C1786.93 194 1796.08 194 1803.72 192.595C1838.4 186.211 1865.54 159.072 1871.92 124.389C1873.33 116.758 1873.33 107.605 1873.33 89.298V89.298C1873.33 75.0832 1873.33 67.9758 1874.42 62.0512C1879.37 35.1204 1900.45 14.0482 1927.38 9.09063C1933.3 8 1940.41 8 1954.62 8H2080.56" stroke="white" stroke-opacity="0.1" stroke-width="15"/>
</svg>
