<svg width="831" height="753" viewBox="0 0 831 753" fill="none" xmlns="http://www.w3.org/2000/svg">
<path d="M327.717 526.621L365.232 630.085L278.707 530.243" stroke="#F1F1F1" stroke-width="13.1986" stroke-miterlimit="10"/>
<path d="M373.771 497.808H283.398L226.214 435.254H295.647" stroke="#F1F1F1" stroke-width="13.1986" stroke-miterlimit="10"/>
<path d="M299.999 466.531H373.771L400.521 439.781" stroke="#F1F1F1" stroke-width="13.1986" stroke-miterlimit="10"/>
<path d="M455.001 412.566H367.609L331.402 376.359H200.244L165.861 404.845H123.667L94.893 376.083H16.9077" stroke="#F1F1F1" stroke-width="13.1986" stroke-miterlimit="10"/>
<path d="M11.4622 344.503V316.823L46.3989 268.719H150.782L200.244 321.803L144.934 377.114L122.473 354.652" stroke="#F1F1F1" stroke-width="13.1986" stroke-miterlimit="10"/>
<path d="M250.7 402.958H316.071L351.083 440.448" stroke="#F1F1F1" stroke-width="13.1986" stroke-miterlimit="10"/>
<path d="M385.114 383.063L331.502 321.804H419.083L436.589 339.323H389.843L434.577 387.603" stroke="#F1F1F1" stroke-width="13.1986" stroke-miterlimit="10"/>
<path d="M251.104 505.588L215.274 466.602H119.418" stroke="#F1F1F1" stroke-width="13.1986" stroke-miterlimit="10"/>
<path d="M46.3989 408.026H83.7252L114.587 438.876H173.469L212.493 399.852" stroke="#F1F1F1" stroke-width="13.1986" stroke-miterlimit="10"/>
<path d="M367.609 261.45L396.471 295.029H311.343" stroke="#F1F1F1" stroke-width="13.1986" stroke-miterlimit="10"/>
<path d="M286.843 268.719L236.664 218.54H288.654L338.016 267.902" stroke="#F1F1F1" stroke-width="13.1986" stroke-miterlimit="10"/>
<path d="M194.27 221.521L313.342 349.031H214.87" stroke="#F1F1F1" stroke-width="13.1986" stroke-miterlimit="10"/>
<path d="M119.014 324.08H86.4544L67.3888 349.031H43.343V322.91L63.7668 295.029H132.622L163.031 325.438" stroke="#F1F1F1" stroke-width="13.1986" stroke-miterlimit="10"/>
<path d="M92.6926 241.945H167.232L243.796 321.804" stroke="#F1F1F1" stroke-width="13.1986" stroke-miterlimit="10"/>
<path d="M278.707 541.436C284.972 541.436 290.05 536.357 290.05 530.092C290.05 523.827 284.972 518.748 278.707 518.748C272.442 518.748 267.363 523.827 267.363 530.092C267.363 536.357 272.442 541.436 278.707 541.436Z" fill="white"/>
<path d="M329.678 537.964C335.943 537.964 341.022 532.885 341.022 526.62C341.022 520.355 335.943 515.277 329.678 515.277C323.413 515.277 318.334 520.355 318.334 526.62C318.334 532.885 323.413 537.964 329.678 537.964Z" fill="white"/>
<path d="M373.771 509.139C380.036 509.139 385.115 504.061 385.115 497.796C385.115 491.531 380.036 486.452 373.771 486.452C367.506 486.452 362.427 491.531 362.427 497.796C362.427 504.061 367.506 509.139 373.771 509.139Z" fill="white"/>
<path d="M299.999 477.875C306.264 477.875 311.343 472.796 311.343 466.531C311.343 460.266 306.264 455.187 299.999 455.187C293.734 455.187 288.655 460.266 288.655 466.531C288.655 472.796 293.734 477.875 299.999 477.875Z" fill="white"/>
<path d="M295.911 446.598C302.176 446.598 307.255 441.519 307.255 435.254C307.255 428.989 302.176 423.91 295.911 423.91C289.646 423.91 284.567 428.989 284.567 435.254C284.567 441.519 289.646 446.598 295.911 446.598Z" fill="white"/>
<path d="M401.187 451.792C407.452 451.792 412.531 446.713 412.531 440.448C412.531 434.183 407.452 429.104 401.187 429.104C394.922 429.104 389.843 434.183 389.843 440.448C389.843 446.713 394.922 451.792 401.187 451.792Z" fill="white"/>
<path d="M351.083 451.792C357.348 451.792 362.427 446.713 362.427 440.448C362.427 434.183 357.348 429.104 351.083 429.104C344.818 429.104 339.74 434.183 339.74 440.448C339.74 446.713 344.818 451.792 351.083 451.792Z" fill="white"/>
<path d="M455.001 423.91C461.266 423.91 466.344 418.832 466.344 412.567C466.344 406.302 461.266 401.223 455.001 401.223C448.736 401.223 443.657 406.302 443.657 412.567C443.657 418.832 448.736 423.91 455.001 423.91Z" fill="white"/>
<path d="M434.589 398.947C440.854 398.947 445.933 393.868 445.933 387.603C445.933 381.338 440.854 376.259 434.589 376.259C428.324 376.259 423.246 381.338 423.246 387.603C423.246 393.868 428.324 398.947 434.589 398.947Z" fill="white"/>
<path d="M385.127 394.419C391.392 394.419 396.471 389.341 396.471 383.076C396.471 376.811 391.392 371.732 385.127 371.732C378.862 371.732 373.783 376.811 373.783 383.076C373.783 389.341 378.862 394.419 385.127 394.419Z" fill="white"/>
<path d="M311.343 306.373C317.608 306.373 322.687 301.294 322.687 295.029C322.687 288.764 317.608 283.685 311.343 283.685C305.078 283.685 299.999 288.764 299.999 295.029C299.999 301.294 305.078 306.373 311.343 306.373Z" fill="white"/>
<path d="M367.608 272.794C373.873 272.794 378.952 267.715 378.952 261.45C378.952 255.185 373.873 250.107 367.608 250.107C361.343 250.107 356.265 255.185 356.265 261.45C356.265 267.715 361.343 272.794 367.608 272.794Z" fill="white"/>
<path d="M337.212 280.064C343.477 280.064 348.555 274.985 348.555 268.72C348.555 262.455 343.477 257.376 337.212 257.376C330.947 257.376 325.868 262.455 325.868 268.72C325.868 274.985 330.947 280.064 337.212 280.064Z" fill="white"/>
<path d="M286.844 280.064C293.109 280.064 298.188 274.985 298.188 268.72C298.188 262.455 293.109 257.376 286.844 257.376C280.579 257.376 275.5 262.455 275.5 268.72C275.5 274.985 280.579 280.064 286.844 280.064Z" fill="white"/>
<path d="M194.271 232.865C200.536 232.865 205.614 227.786 205.614 221.521C205.614 215.256 200.536 210.177 194.271 210.177C188.006 210.177 182.927 215.256 182.927 221.521C182.927 227.786 188.006 232.865 194.271 232.865Z" fill="white"/>
<path d="M214.87 360.375C221.135 360.375 226.214 355.297 226.214 349.032C226.214 342.767 221.135 337.688 214.87 337.688C208.605 337.688 203.527 342.767 203.527 349.032C203.527 355.297 208.605 360.375 214.87 360.375Z" fill="white"/>
<path d="M243.796 333.147C250.061 333.147 255.139 328.069 255.139 321.804C255.139 315.539 250.061 310.46 243.796 310.46C237.531 310.46 232.452 315.539 232.452 321.804C232.452 328.069 237.531 333.147 243.796 333.147Z" fill="white"/>
<path d="M92.6919 253.289C98.9569 253.289 104.036 248.21 104.036 241.945C104.036 235.68 98.9569 230.601 92.6919 230.601C86.4269 230.601 81.3481 235.68 81.3481 241.945C81.3481 248.21 86.4269 253.289 92.6919 253.289Z" fill="white"/>
<path d="M162.125 337.688C168.39 337.688 173.469 332.609 173.469 326.344C173.469 320.079 168.39 315 162.125 315C155.86 315 150.781 320.079 150.781 326.344C150.781 332.609 155.86 337.688 162.125 337.688Z" fill="white"/>
<path d="M119.014 335.424C125.279 335.424 130.358 330.345 130.358 324.08C130.358 317.815 125.279 312.737 119.014 312.737C112.749 312.737 107.67 317.815 107.67 324.08C107.67 330.345 112.749 335.424 119.014 335.424Z" fill="white"/>
<path d="M11.4619 355.848C17.7269 355.848 22.8057 350.769 22.8057 344.504C22.8057 338.239 17.7269 333.16 11.4619 333.16C5.19694 333.16 0.118164 338.239 0.118164 344.504C0.118164 350.769 5.19694 355.848 11.4619 355.848Z" fill="white"/>
<path d="M16.9075 387.603C23.1725 387.603 28.2513 382.524 28.2513 376.259C28.2513 369.994 23.1725 364.915 16.9075 364.915C10.6425 364.915 5.56372 369.994 5.56372 376.259C5.56372 382.524 10.6425 387.603 16.9075 387.603Z" fill="white"/>
<path d="M46.3987 419.371C52.6637 419.371 57.7425 414.292 57.7425 408.027C57.7425 401.762 52.6637 396.683 46.3987 396.683C40.1337 396.683 35.0549 401.762 35.0549 408.027C35.0549 414.292 40.1337 419.371 46.3987 419.371Z" fill="white"/>
<path d="M119.014 477.875C125.279 477.875 130.358 472.796 130.358 466.531C130.358 460.266 125.279 455.187 119.014 455.187C112.749 455.187 107.67 460.266 107.67 466.531C107.67 472.796 112.749 477.875 119.014 477.875Z" fill="white"/>
<path d="M211.587 410.29C217.852 410.29 222.931 405.212 222.931 398.947C222.931 392.682 217.852 387.603 211.587 387.603C205.322 387.603 200.244 392.682 200.244 398.947C200.244 405.212 205.322 410.29 211.587 410.29Z" fill="white"/>
<path d="M121.277 367.191C127.542 367.191 132.621 362.113 132.621 355.848C132.621 349.583 127.542 344.504 121.277 344.504C115.012 344.504 109.933 349.583 109.933 355.848C109.933 362.113 115.012 367.191 121.277 367.191Z" fill="white"/>
<path d="M250.699 414.302C256.964 414.302 262.043 409.223 262.043 402.958C262.043 396.694 256.964 391.615 250.699 391.615C244.434 391.615 239.356 396.694 239.356 402.958C239.356 409.223 244.434 414.302 250.699 414.302Z" fill="white"/>
<path d="M250.699 516.861C256.964 516.861 262.043 511.782 262.043 505.517C262.043 499.252 256.964 494.174 250.699 494.174C244.434 494.174 239.356 499.252 239.356 505.517C239.356 511.782 244.434 516.861 250.699 516.861Z" fill="white"/>
<path fill-rule="evenodd" clip-rule="evenodd" d="M944 28.9481L943.879 28.827C937.024 21.9724 931.716 16.6646 927.15 12.6848C922.527 8.65479 918.42 5.76392 913.892 3.89972C902.552 -0.768982 889.827 -0.768982 878.487 3.89972C873.958 5.76392 869.851 8.65479 865.228 12.6848C860.662 16.6646 855.354 21.9724 848.499 28.8269L848.378 28.9481L704.299 173.027C692.709 184.618 687.284 190.022 682.079 193.77C653.981 214.005 616.091 214.005 587.992 193.77C582.788 190.022 577.363 184.618 565.772 173.027L565.368 172.623L565.368 172.622C556.847 164.102 552.163 159.417 547.538 156.087C522.93 138.365 489.747 138.365 465.139 156.087C460.514 159.417 455.83 164.102 447.309 172.623L446.905 173.027L356.623 263.31L362.987 269.674L453.269 179.391C462.296 170.364 466.44 166.241 470.399 163.39C491.865 147.931 520.812 147.931 542.279 163.39C546.237 166.241 550.381 170.364 559.408 179.391L559.824 179.806C570.897 190.88 576.862 196.845 582.733 201.073C613.972 223.571 656.099 223.571 687.339 201.073C693.209 196.846 699.174 190.881 710.247 179.807L710.248 179.806L710.663 179.391L854.742 35.312C861.743 28.3113 866.835 23.2227 871.141 19.4694C875.417 15.7429 878.672 13.5561 881.913 12.222C891.058 8.45692 901.32 8.45692 910.465 12.222C913.706 13.5561 916.962 15.7429 921.237 19.4694C925.543 23.2227 930.635 28.3113 937.636 35.312L944 28.9481ZM809.501 198H809.075C802.068 198 798.105 198 794.7 198.43C770.244 201.52 750.907 220.641 747.542 245.061C747.074 248.461 747.029 252.424 746.951 259.432L746.946 259.857C746.758 276.592 746.66 284.542 745.746 291.173C739.109 339.341 700.968 377.056 652.729 383.152C646.088 383.991 638.137 384 621.401 384H429.093V393H621.401H621.868C638.028 393 646.582 393 653.857 392.081C706.134 385.475 747.47 344.602 754.662 292.401C755.663 285.138 755.759 276.583 755.94 260.423L755.945 259.958C756.03 252.411 756.077 249.055 756.458 246.289C759.267 225.902 775.411 209.939 795.828 207.359C798.598 207.009 801.954 207 809.501 207H963.575V198H809.501ZM368.001 501.5H369.502C369.507 510.255 369.553 517.226 369.971 522.953C370.447 529.467 371.422 534.723 373.557 539.493C378.226 549.927 386.575 558.276 397.009 562.945C401.779 565.079 407.034 566.055 413.549 566.531C419.981 567 427.984 567 438.319 567H438.501H638.626C657.133 567 665.777 567.019 672.902 568.331C705.749 574.377 731.451 600.079 737.498 632.927C738.809 640.051 738.828 648.696 738.828 667.202V667.847V667.848V667.849C738.828 681.453 738.828 688.933 739.993 695.264C745.289 724.031 767.798 746.54 796.565 751.835C802.895 753.001 810.375 753.001 823.98 753H823.98H823.981H824.626H950.559V744H824.626C810.211 744 803.613 743.982 798.194 742.984C773.099 738.365 753.464 718.729 748.844 693.634C747.847 688.216 747.828 681.617 747.828 667.202V666.539C747.828 648.858 747.828 639.333 746.349 631.297C739.626 594.777 711.051 566.202 674.531 559.479C666.495 558 656.971 558 639.291 558H639.29H639.289H638.626H438.501C427.946 558 420.271 557.998 414.205 557.554C408.183 557.115 404.101 556.258 400.685 554.73C392.27 550.964 385.537 544.232 381.772 535.817C380.243 532.401 379.387 528.319 378.947 522.297C378.555 516.923 378.508 510.285 378.502 501.5H882.438V494.5H368.001V501.5Z" fill="white"/>
</svg>
